<svg width="45" height="42" viewBox="0 0 45 42" fill="none" xmlns="http://www.w3.org/2000/svg">
<g clip-path="url(#clip0_82_1503)">
<path d="M22 21H30.25C30.252 22.9112 29.5911 24.764 28.38 26.2425C27.1688 27.721 25.4824 28.7338 23.6082 29.1081C21.734 29.4824 19.7879 29.1951 18.1018 28.2952C16.4156 27.3953 15.0938 25.9385 14.3615 24.1731C13.6292 22.4077 13.5319 20.443 14.086 18.6139C14.6402 16.7847 15.8116 15.2044 17.4005 14.1422C18.9894 13.08 20.8975 12.6018 22.7996 12.789C24.7016 12.9762 26.4799 13.8172 27.8312 15.1687" stroke="#180E19" stroke-width="1.5" stroke-linecap="round" stroke-linejoin="round"/>
</g>
<rect x="1" y="1" width="43" height="40" rx="5" stroke="#180E19" stroke-width="1.5"/>
<defs>
<clipPath id="clip0_82_1503">
<rect width="24" height="24" fill="white" transform="translate(10 9)"/>
</clipPath>
</defs>
</svg>
